<svg xmlns="http://www.w3.org/2000/svg" height="48" width="48"><path d="M15.75 41.05Q15.05 41.05 14.525 40.75Q14 40.45 13.75 39.9L9.35 32.15H13.1L15.45 36.45H19.95V34.95H16.35L14 30.65H8.55L5.45 25.1Q5.35 24.85 5.25 24.6Q5.15 24.35 5.15 24.05Q5.15 23.7 5.225 23.425Q5.3 23.15 5.45 22.85L8.55 17.35H14L16.35 13.05H19.95V11.55H15.5L13.1 15.85H9.35L13.75 8.05Q13.95 7.6 14.5 7.25Q15.05 6.9 15.75 6.9H20.95Q21.95 6.9 22.6 7.575Q23.25 8.25 23.25 9.2V17.9H18.75L17.25 19.4H23.25V26.65H18L15.9 22.4H11L9.5 23.9H14.85L17.05 28.15H23.25V38.8Q23.25 39.75 22.6 40.4Q21.95 41.05 20.95 41.05ZM27.05 41.05Q26.05 41.05 25.4 40.4Q24.75 39.75 24.75 38.8V28.15H31L33.2 23.9H38.55L37.05 22.4H32.2L30.05 26.65H24.75V19.4H30.75L29.25 17.9H24.75V9.2Q24.75 8.25 25.4 7.575Q26.05 6.9 27.05 6.9H32.35Q33 6.9 33.525 7.225Q34.05 7.55 34.3 8.05L38.65 15.85H35L32.6 11.55H28.05V13.05H31.7L34 17.3H39.45L42.6 22.9Q42.7 23.2 42.8 23.45Q42.9 23.7 42.9 24Q42.9 24.3 42.8 24.575Q42.7 24.85 42.6 25.1L39.45 30.65H34L31.7 34.95H28.05V36.45H32.6L34.95 32.15H38.65L34.3 39.9Q34.05 40.4 33.55 40.725Q33.05 41.05 32.35 41.05Z"/></svg>